# xmcd
#
# Track frame offsets:
#	150
#	18818
#	36074
#	52043
#	70777
#	86951
#	104210
#	114889
#	130732
#	149311
#	168961
#
# Disc length: 2551 seconds
#
# Revision: 0
# Processed by: cddbd v1.5.1PL0 Copyright (c) Steve Scherf et al.
# Submitted via: EasyCDDAExtractor 7.1.2.1
#
DISCID=9309f50b
DTITLE=Annette Hawkins - Which Way Leads Home
DYEAR=2004
DGENRE=Country
TTITLE0=Dust On The Mother Old Bible
TTITLE1=Which Way Leads Home
TTITLE2=Crazy Arms
TTITLE3=I Guess You Had To Be There
TTITLE4=Travelin Man ( Dixielanders)
TTITLE5=Tennessee Blues
TTITLE6=Waltz Across Texas
TTITLE7=Not To Much To Ask
TTITLE8=Nobody's Fool Anymore
TTITLE9=Medley
TTITLE10=Amazing Grace
EXTD=
EXTT0=
EXTT1=
EXTT2=
EXTT3=
EXTT4=
EXTT5=
EXTT6=
EXTT7=
EXTT8=
EXTT9=
EXTT10=
PLAYORDER=
